<svg xmlns="http://www.w3.org/2000/svg" xmlns:xlink="http://www.w3.org/1999/xlink" width="1236px" height="924px" viewBox="0 0 1236 924" version="1.1">
    <!-- Generator: Sketch 42 (36781) - http://www.bohemiancoding.com/sketch -->
    <title>Outlined Blob Pattern</title>
    <desc>Created with Sketch.</desc>
    <defs/>
    <g id="Page-1" stroke="none" stroke-width="1" fill="none" fill-rule="evenodd">
        <g id="Patterns" transform="translate(-40.000000, -98.000000)">
            <g id="Outlined-Blob-Pattern" transform="translate(40.000000, 95.000000)">
                <rect id="Rectangle-7" x="0" y="0" width="1235" height="930"/>
                <g id="pattern" transform="translate(1.000000, 4.000000)" stroke="#F9F9F9" stroke-width="2">
                    <path d="M1082.4053,659.0556 C1075.0283,654.5076 1066.3473,651.8266 1058.7553,652.7076 C1051.6813,653.5296 1045.0263,656.3636 1038.2043,658.4046 C1031.3823,660.4456 1023.9353,661.6806 1017.2223,659.3036 C1006.4573,655.4916 998.5723,642.8946 987.2353,644.2826 C980.8333,645.0666 975.7373,650.5906 973.8643,656.7636 C971.9903,662.9366 972.8173,669.6156 974.4163,675.8656 C976.3833,683.5566 981.2213,692.2226 989.1603,692.3256 C995.8813,692.4106 1002.0393,686.0216 1008.4863,687.9196 C1011.9403,688.9376 1014.3683,692.2486 1015.1733,695.7586 C1015.9783,699.2686 1015.4003,702.9516 1014.4703,706.4296 C1011.2543,718.4636 1003.7783,725.7766 996.3953,735.1176 C991.8923,740.8126 983.6043,750.4946 984.4573,758.2426 C985.2913,765.8146 995.9303,766.1986 1001.4773,765.5626 C1020.4703,763.3876 1038.3233,755.7426 1054.3513,745.5456 C1076.1753,731.6626 1114.1183,702.5706 1096.2753,672.5046 C1093.2543,667.4126 1088.2373,662.6516 1082.4053,659.0556 Z" id="Stroke-1"/>
                    <path d="M979.4258,161.3231 C975.8318,172.1041 972.0898,182.9811 965.9048,192.4381 C958.6548,203.5221 947.6138,211.6091 937.4128,219.5561 C934.7128,221.7801 931.7808,224.4471 931.6008,228.0211 C931.4198,231.5921 934.2748,234.7451 937.5488,235.8451 C940.8228,236.9451 944.3888,236.4181 947.7388,235.6011 C964.8738,231.4251 979.6838,220.1811 996.5298,214.8881 C998.5158,214.2641 1000.8878,213.7991 1002.4838,215.1751 C1003.6388,216.1701 1004.0018,217.8531 1004.0268,219.4121 C1004.1548,227.6161 997.1128,234.2911 996.3188,242.4541 C996.2058,243.6101 996.2318,244.8211 996.7098,245.8701 C997.3288,247.2251 998.6218,248.1241 999.9628,248.6801 C1006.6838,251.4711 1014.0218,247.0541 1019.9208,242.6981 C1037.3188,229.8491 1053.9388,215.8651 1069.6538,200.8581 C1076.9428,193.8981 1083.5898,185.3431 1091.3068,179.0751 C1099.2498,172.6241 1109.7668,168.3101 1119.0578,164.4681 C1131.4298,159.3481 1145.1118,155.5031 1153.9378,145.1421 C1155.4678,143.3441 1156.8938,140.9931 1156.2508,138.6881 C1155.5178,136.0581 1152.5448,134.9611 1149.9448,134.5111 C1131.4768,131.3131 1112.6578,141.0951 1094.1578,138.1041 C1092.8098,137.8861 1091.4078,137.5711 1090.3638,136.6581 C1086.8368,133.5761 1090.2248,127.7001 1093.7938,124.6711 C1098.5018,120.6741 1124.0128,107.6971 1117.1588,101.3091 C1115.7148,99.9641 1113.8278,99.2601 1111.9618,98.7111 C1099.5658,95.0651 1086.5658,97.0711 1074.2828,100.1781 C1063.2908,102.9601 1052.5698,103.9961 1041.2038,104.6081 C1031.1998,105.1471 1020.8948,105.8651 1011.9098,110.4661 C995.8988,118.6641 987.6148,137.1411 981.6678,154.6261 C980.9128,156.8441 980.1728,159.0821 979.4258,161.3231 Z" id="Stroke-3"/>
                    <path d="M954.3839,148.9198 C950.0179,163.0278 948.3259,178.2738 940.4639,191.1158 C933.2499,202.8988 921.7259,212.3608 908.2529,215.4228 C900.1209,217.2708 889.8629,215.7428 886.2819,208.2108 C884.7849,205.0628 884.7629,201.4378 884.8379,197.9508 C885.0479,188.1998 885.7719,178.2718 883.2829,168.8408 C878.9629,152.4628 864.3339,139.2998 847.5919,136.7258 C838.2629,135.2918 827.4749,136.4528 820.7049,129.8728 C812.8249,122.2118 814.8759,105.8278 820.5939,97.4248 C827.9489,86.6128 846.5389,80.1328 858.4599,76.8478 C873.3949,72.7328 888.9849,71.5938 904.4709,71.2048 C917.3999,70.8798 934.6219,70.3508 945.8329,78.1118 C967.5299,93.1368 960.6449,128.6898 954.3839,148.9198 Z" id="Stroke-5"/>
                    <path d="M828.3214,287.1903 C829.7914,290.8193 833.6994,292.8573 837.5054,293.7773 C844.6454,295.5033 852.1314,294.3533 859.4694,294.6853 C866.8094,295.0183 874.8534,297.4233 878.5034,303.7993 C880.1144,306.6143 880.6814,309.9343 880.5964,313.1763 C880.3194,323.6713 873.5434,332.9883 865.5084,339.7453 C857.4714,346.5033 848.0354,351.3893 839.7014,357.7743 C836.7264,360.0533 833.6174,363.2003 834.1284,366.9123 C834.6654,370.8273 838.9054,373.0073 842.7174,374.0543 C852.8724,376.8463 863.6094,376.2903 874.0764,377.4703 C885.9484,378.8093 899.3994,382.6333 903.7144,394.9303 C907.6074,406.0273 903.3384,418.0983 900.1184,429.4103 C896.8984,440.7203 895.1514,454.1693 902.7744,463.1253 C907.7454,468.9643 915.6444,471.4243 923.2534,472.3853 C933.9454,473.7343 946.0374,472.1153 953.1424,464.0113 C958.0904,458.3703 960.4334,449.3273 959.5204,441.8943 C958.4264,432.9833 953.1964,425.0853 952.7024,415.5663 C952.4764,411.2153 952.7714,406.7663 954.3164,402.6943 C955.7694,398.8613 958.2644,395.5193 960.8834,392.3663 C967.8974,383.9213 976.0274,376.5033 984.9714,370.1513 C991.7714,365.3223 1002.4254,357.9233 1000.8544,348.2323 C999.9834,342.8613 995.1914,338.8283 990.0314,337.1013 C984.8714,335.3763 979.3084,335.4883 973.8694,335.3613 C964.5434,335.1433 955.2354,334.1693 946.0674,332.4493 C941.2074,331.5383 935.5604,329.6813 934.2004,324.9263 C932.8564,320.2323 936.5544,315.7073 940.0854,312.3343 C948.5164,304.2763 957.6484,296.9533 967.3454,290.4733 C971.0624,287.9903 975.1534,285.2513 976.3404,280.9403 C977.6034,276.3513 974.9494,271.3923 971.1104,268.5783 C967.2714,265.7633 962.4734,264.6563 957.8004,263.7513 C926.6704,257.7263 895.5664,261.2603 863.9914,264.4103 C854.6964,265.3373 847.9124,264.0003 839.4464,269.1393 C833.6564,272.6543 825.1524,279.3613 828.3214,287.1903 Z" id="Stroke-7"/>
                    <path d="M525.2921,200.4794 C532.8001,185.1334 528.4381,173.5574 512.3221,169.4384 C498.9751,166.0274 488.4811,170.1554 475.9691,173.3904 C462.9081,176.7664 450.4061,181.4594 438.6821,188.1954 C435.2221,190.1834 431.7331,192.4274 429.5781,195.7864 C427.4221,199.1454 426.9651,203.9064 429.5211,206.9704 C432.0461,209.9994 436.4361,210.4404 440.0641,211.9794 C447.0131,214.9254 451.4561,222.8754 450.3241,230.3364 C448.7081,240.9934 421.0921,260.9074 412.3191,248.0554 C409.3951,243.7704 411.5561,237.6524 409.3391,232.9614 C406.5941,227.1554 398.5531,226.2104 392.3671,227.9394 C377.4291,232.1144 366.7731,248.7584 357.7851,260.4414 C346.9161,274.5694 337.3941,289.7254 329.3111,305.6104 C327.1671,309.8214 325.1041,314.3024 324.8271,319.5104 C324.5521,324.7194 326.5041,330.8554 330.5311,333.8274 C335.0531,337.1624 340.3381,335.5204 344.6221,333.3064 C360.0591,325.3304 394.6461,281.7504 413.1211,301.4694 C417.2391,305.8664 418.8311,311.9914 420.2761,317.8394 C422.1051,325.2394 423.9341,332.6384 425.7631,340.0394 C426.8371,344.3844 427.9801,348.8754 430.7491,352.3934 C435.3011,358.1764 443.9461,360.0704 450.7271,357.2074 C457.5071,354.3444 462.1011,347.2244 462.4851,339.8744 C462.6801,336.1604 461.9091,332.4454 462.1211,328.7324 C462.3341,325.0204 463.8391,321.0224 467.1681,319.3664 C475.5991,315.1714 485.5291,336.6834 493.1741,340.0504 C498.2521,342.2874 504.1651,344.0104 509.2331,341.7524 C514.1111,339.5794 516.8551,334.1814 517.5911,328.8914 C519.5781,314.5874 508.7171,309.7474 500.6981,300.5034 C492.8851,291.4984 488.5641,279.5374 488.8191,267.6174 C489.3921,240.7754 514.2071,223.1374 525.2921,200.4794 Z" id="Stroke-9"/>
                    <path d="M785.0665,254.1269 C788.1605,251.7289 791.5975,249.6279 795.4625,247.8989 C804.5735,243.8229 814.7405,242.2039 823.3805,237.2059 C833.8235,231.1659 841.0585,220.6909 845.8105,209.6039 C849.0335,202.0839 851.2955,193.8379 850.0255,185.7559 C848.5055,176.0719 841.5105,167.3389 832.2485,164.1299 C822.9865,160.9209 811.8605,163.6009 805.3715,170.9469 C801.8395,174.9459 799.7535,179.9899 796.8015,184.4349 C792.4775,190.9449 785.4965,196.4209 777.6835,196.1969 C771.8725,196.0309 766.2825,192.4729 763.6705,187.2779 C758.9545,177.8939 765.4605,169.6279 769.9835,161.7729 C773.1995,156.1869 775.1135,149.6119 778.0885,143.8409 C784.3855,131.6249 788.1585,113.5729 778.3505,102.0069 C769.4205,91.4749 751.3635,94.9029 742.4845,103.8349 C725.3375,121.0859 709.1775,139.4909 693.1055,157.7369 C686.2025,165.5739 679.0855,174.0419 677.4075,184.3519 C675.7295,194.6599 681.9995,206.9849 692.4075,207.8529 C696.3325,208.1799 700.3525,206.8869 704.1765,207.8259 C708.2945,208.8379 711.4635,212.3719 712.9235,216.3529 C714.3825,220.3329 714.3485,224.7099 713.8205,228.9169 C712.4575,239.7819 706.5145,251.4039 695.8915,254.0599 C689.0705,255.7649 681.4705,253.4579 675.0565,256.3369 C667.0445,259.9319 664.3225,269.9849 664.2205,278.7679 C664.0675,291.9759 667.7125,305.2059 674.6065,316.4729 C675.3835,317.7429 676.2155,318.9929 677.0995,320.2129 C685.3775,331.6459 698.1305,340.4859 712.0735,339.8209 C728.1075,339.0559 741.0745,326.1999 749.1245,312.3129 C760.5705,292.5649 766.9025,268.2089 785.0665,254.1269 Z" id="Stroke-11"/>
                    <path d="M280.2276,691.7011 C289.6446,672.1921 317.3016,656.8841 338.9476,672.5261 C360.3666,688.0051 371.0936,702.1801 395.7936,691.0381 C417.5916,681.2051 419.5116,657.4621 424.0966,633.5611 C426.7606,619.6761 434.5206,607.5621 446.5046,603.8611 C458.4906,600.1611 474.7116,606.6421 482.6206,620.3971 C491.9766,636.6731 487.2166,655.5671 480.2086,669.6311 C471.5006,687.1051 459.9236,702.2301 451.6106,720.0091 C436.6196,752.0671 430.9116,794.2691 402.6206,811.2281 C395.6106,815.4301 387.0976,817.7511 378.3586,815.0731 C369.6206,812.3951 360.9026,803.7241 359.1926,793.7911 C358.0456,787.1271 359.9716,780.4751 357.2646,774.0561 C355.4656,769.7891 351.9316,766.5061 348.3516,763.9381 C336.0296,755.1021 322.0426,752.5101 308.7836,746.9501 C295.5236,741.3901 281.2436,730.5781 277.4376,715.3761 C275.3056,706.8601 276.9576,698.4741 280.2276,691.7011 Z" id="Stroke-13"/>
                    <path d="M591.9962,392.7665 C599.4752,389.8755 606.6122,385.8855 614.1402,381.0475 C628.5702,371.7705 642.7922,360.8265 660.0072,357.4375 C663.0592,356.8365 666.2552,356.4955 669.2502,357.3315 C677.0892,359.5205 680.7372,369.4035 678.5372,377.2395 C675.8832,386.6925 667.5492,391.6205 661.1012,398.1815 C654.0632,405.3435 646.8702,412.7455 642.6302,421.9835 C638.9602,429.9765 634.0322,437.6915 633.1202,446.4385 C632.8932,448.6095 632.9342,450.8635 633.7332,452.8945 C635.1722,456.5525 638.8532,458.9025 642.6312,459.9895 C648.2512,461.6065 654.2352,460.9465 660.0602,460.4305 C665.8852,459.9145 671.9632,459.5945 677.3732,461.8125 C682.7832,464.0305 687.2952,469.5275 686.4722,475.3165 C685.7332,480.5145 681.1912,484.2305 676.8462,487.1765 C666.3762,494.2725 655.0942,500.0715 643.8442,505.8515 C636.0312,509.8655 627.5772,513.9985 618.8752,512.7955 C610.7762,511.6765 603.8622,505.9305 599.6042,498.9515 C595.3472,491.9715 593.4022,483.8415 592.0272,475.7835 C591.1072,470.3905 590.3922,464.8835 588.2002,459.8715 C575.0542,429.8045 539.1832,441.4405 514.8542,439.7205 C492.5932,438.1465 461.0812,429.3765 449.1182,408.7415 C445.6082,402.6865 444.3502,394.1755 449.3302,389.2595 C451.8712,386.7525 455.4822,385.7405 458.9202,384.7785 C468.3002,382.1535 477.7222,379.1665 485.9332,373.9285 C493.7502,368.9425 500.7232,361.8285 509.8502,360.1945 C538.8082,355.0105 530.4212,381.7985 546.8952,393.8335 C551.8112,397.4245 558.2632,398.0505 564.3502,397.9905 C574.6972,397.8855 583.5632,396.0255 591.9962,392.7665 Z" id="Stroke-15"/>
                    <path d="M776.8165,383.3593 C788.1155,369.8253 802.7965,359.1643 812.4465,344.2463 C816.1115,338.5813 821.2105,330.5333 816.5005,324.2753 C812.7245,319.2593 802.5565,316.8613 796.8225,317.3803 C789.8455,318.0093 783.4175,321.3053 777.3305,324.7723 C757.5865,336.0133 739.2705,349.7503 722.9075,365.5083 C714.5585,373.5483 706.7165,382.1163 699.4525,391.1483 C694.9525,396.7423 684.4035,406.2003 684.0905,413.6963 C683.8625,419.1613 688.0925,424.0093 693.0655,426.2883 C698.0395,428.5663 703.6615,428.8303 709.1215,429.1653 C717.6405,429.6863 726.2905,430.5003 734.2125,433.6773 C742.1345,436.8553 749.3495,442.7373 752.2755,450.7553 C756.9735,463.6293 749.6075,477.8413 740.3365,487.9323 C731.0645,498.0233 719.5075,506.3723 713.0145,518.4403 C711.8285,520.6463 710.8065,523.0463 710.8585,525.5493 C711.0035,532.5983 719.0435,536.6093 726.0055,537.7173 C735.6895,539.2593 745.6385,538.3263 755.2055,536.1713 C788.5015,528.6753 816.8825,506.9173 840.6135,482.3873 C849.2255,473.4853 857.5325,463.9133 862.2615,452.4643 C866.9915,441.0163 867.6715,427.2933 861.3475,416.6423 C853.9605,404.2033 838.7105,398.4613 824.2675,397.6133 C809.8255,396.7653 795.4675,399.8723 781.0265,400.7393 C779.1495,400.8523 777.1775,400.9093 775.4915,400.0763 C772.5895,398.6423 771.4475,394.8913 772.0855,391.7183 C772.7225,388.5463 774.7425,385.8433 776.8165,383.3593 Z" id="Stroke-17"/>
                    <path d="M546.9034,258.0517 C542.6114,263.4037 537.2704,267.8957 533.4054,273.5627 C529.5404,279.2297 527.3024,286.7177 530.1264,292.9687 C533.0504,299.4427 540.3614,302.6257 547.2324,304.4257 C554.1034,306.2267 561.4954,307.3727 567.0074,311.8537 C574.4634,317.9157 576.4434,328.3427 577.4484,337.9007 C577.7574,340.8447 578.0474,343.8827 579.4354,346.4977 C581.7654,350.8877 586.7884,353.2397 591.7034,353.9787 C600.4324,355.2897 609.3894,352.3967 616.8414,347.6627 C624.2924,342.9287 630.4564,336.4567 636.4014,329.9317 C639.8894,326.1037 643.4574,321.9967 644.5814,316.9417 C645.7854,311.5277 643.9954,305.9597 642.5364,300.6097 C637.0364,280.4317 636.1074,259.0227 639.8404,238.4447 C641.5464,229.0417 644.1994,219.2877 641.5094,210.1177 C641.0234,208.4587 640.3094,206.7727 638.9524,205.6997 C637.7874,204.7807 636.2704,204.4197 634.7894,204.3217 C626.9474,203.7957 620.1194,209.7737 612.3414,210.9077 C601.8454,212.4407 592.9784,205.2917 584.4864,200.3227 C572.6584,193.4017 568.7994,195.7857 563.9014,208.1587 C557.2914,224.8617 558.7084,243.3377 546.9034,258.0517 Z" id="Stroke-19"/>
                    <path d="M700.8214,726.6708 C707.8524,728.0788 715.2594,728.3688 722.1024,726.2288 C728.9454,724.0878 735.1664,719.2678 737.8574,712.6208 C740.5484,705.9748 739.0924,697.5468 733.5644,692.9818 C728.2124,688.5608 720.3324,688.3048 714.9254,683.9518 C708.7054,678.9458 707.4594,669.6428 709.7134,661.9828 C711.9674,654.3228 717.0254,647.8608 721.7884,641.4528 C726.5514,635.0448 731.2474,628.1978 732.5644,620.3228 C734.1144,611.0658 730.7814,601.7178 726.8604,593.1908 C724.2944,587.6078 721.4004,582.1028 718.0744,576.9078 C712.6794,568.4818 706.1474,560.8748 698.0284,555.0968 C692.3774,551.0748 685.7384,547.9448 678.8054,548.1498 C671.8734,548.3528 664.7504,552.6148 662.8884,559.2958 C660.3084,568.5638 668.0974,577.4828 669.0334,587.0578 C669.9074,596.0118 663.8694,605.1678 655.2944,607.8918 C641.0814,612.4048 626.9484,597.4848 617.2574,589.1358 C608.8144,581.8608 596.0624,575.8188 587.1304,582.4828 C580.6844,587.2918 579.6464,596.7988 581.8694,604.5288 C585.2504,616.2858 594.0324,626.0698 596.0264,638.3158 C598.1574,651.4058 589.0574,661.3298 576.5784,663.6048 C563.3034,666.0238 549.3094,668.0648 538.5004,676.1418 C522.7634,687.8998 517.8844,710.8328 524.3914,729.3688 C530.8984,747.9038 547.0234,761.9638 565.1624,769.5068 C584.9954,777.7548 634.6454,789.7448 642.8014,758.9968 C646.2544,745.9828 636.1334,734.2458 632.5524,722.4478 C631.0674,717.5548 628.5404,710.8018 630.1284,705.7958 C632.1564,699.4038 639.4074,694.8088 645.9914,695.3878 C655.1744,696.1958 665.9664,707.5848 672.3584,713.6078 C680.2024,720.9978 690.2104,724.5458 700.8214,726.6708 Z" id="Stroke-21"/>
                    <path d="M327.3077,369.8993 C332.6497,366.4763 338.3587,364.0703 344.2537,363.8073 C350.2807,363.5383 356.9077,367.1633 357.9537,373.0853 C358.9347,378.6433 354.9717,383.7183 351.4927,388.1713 C348.4757,392.0343 345.5977,396.1373 344.2077,400.8323 C342.8177,405.5263 343.1197,410.9513 346.0647,414.8673 C349.9727,420.0623 357.5527,421.2993 363.8377,419.5903 C370.1217,417.8813 375.4487,413.8213 380.6707,409.9403 C385.8937,406.0593 391.4057,402.1713 397.7947,400.9103 C401.2527,400.2273 405.3347,400.5723 407.5627,403.2953 C408.5137,404.4593 409.0097,405.9253 409.3487,407.3873 C410.6487,412.9953 409.8477,419.0613 407.1357,424.1433 C405.1367,427.8893 402.1797,431.0513 400.0967,434.7533 C398.0137,438.4533 396.8857,443.1283 398.8407,446.8973 C400.7717,450.6203 405.2317,452.4303 409.4327,452.5663 C413.6347,452.7033 417.7437,451.4903 421.8637,450.6573 C430.5337,448.9043 439.5387,448.8233 448.2397,450.4193 C453.3937,451.3643 459.1907,453.5963 460.6877,458.6023 C461.9447,462.8033 459.5967,467.1773 457.1037,470.7893 C440.5837,494.7193 420.7457,515.2703 393.4427,526.7553 C384.7127,530.4273 374.9977,531.8443 365.6007,530.5093 C360.7727,529.8243 355.9027,528.3923 352.1217,525.3223 C348.3417,522.2513 345.8477,517.2873 346.7337,512.5063 C347.3167,509.3633 349.2297,506.6543 351.0227,504.0033 C353.9877,499.6233 356.8037,494.9653 357.7397,489.7633 C358.6747,484.5623 357.3747,478.6653 353.2687,475.3223 C350.6597,473.1983 347.2377,472.3223 343.8847,471.9903 C330.1287,470.6283 316.2797,477.9323 303.0257,471.0873 C294.4417,466.6543 287.4227,459.0293 284.2647,449.8683 C280.5337,439.0413 281.9697,426.8993 286.4407,416.3533 C290.9117,405.8073 298.2147,396.6833 306.2237,388.4773 C312.0027,382.5553 319.2377,375.0683 327.3077,369.8993 Z" id="Stroke-23"/>
                    <path d="M231.9322,332.289 C229.8872,334.432 227.5732,336.39 225.3252,338.279 C216.5622,345.643 207.7252,353.527 202.9072,363.91 C201.5552,366.823 200.5322,369.955 200.5192,373.167 C200.4912,380.185 205.5102,386.602 211.8932,389.518 C218.2762,392.436 225.7302,392.265 232.5072,390.441 C240.5882,388.267 248.0402,383.804 253.7712,377.705 C262.6932,368.21 267.0642,355.468 272.5572,343.653 C276.2192,335.782 280.4682,328.185 285.2572,320.943 C289.7892,314.092 295.9732,307.933 301.3292,301.622 C306.3592,295.697 311.2932,289.621 315.2242,282.893 C318.6432,277.039 319.6712,271.943 320.8312,265.448 C322.5272,255.954 319.8792,242.126 308.5812,240.189 C302.7432,239.188 296.7832,242.098 292.6432,246.333 C288.5042,250.569 285.8492,256 283.2722,261.333 C280.7462,266.56 278.3422,273.21 273.1262,276.268 C267.7012,279.449 260.9382,280.56 254.7952,279.229 C248.5762,277.884 242.9392,274.15 239.1102,269.068 C232.9912,260.948 235.1392,248.525 226.6162,241.595 C222.8182,238.506 217.4242,237.755 212.7082,239.07 C204.0472,241.487 200.4482,249.077 197.2142,256.895 C193.7952,265.158 191.9592,274.081 191.9142,283.026 C191.8982,286.385 192.1372,289.796 193.2792,292.954 C195.0032,297.722 198.7782,301.65 203.3522,303.837 C207.9272,306.023 213.2402,306.51 218.2062,305.49 C221.1442,304.887 223.9822,303.776 226.9662,303.472 C233.7962,302.775 237.3522,307.245 238.1822,313.519 C238.5782,316.513 238.6382,319.594 237.8712,322.513 C236.8832,326.28 234.6432,329.447 231.9322,332.289 Z" id="Stroke-25"/>
                    <path d="M472.2462,126.7294 C471.6572,125.8504 470.9282,125.0704 470.0532,124.4344 C466.5162,121.8654 461.7042,122.1634 457.3842,122.8344 C450.3392,123.9294 443.4022,125.7204 436.7082,128.1734 C429.7272,130.7314 422.1162,134.0414 415.1672,131.4004 C412.7832,130.4944 410.4992,128.6344 410.1682,126.1064 C409.8122,123.3854 411.7722,120.9464 413.7292,119.0234 C421.2142,111.6694 429.8812,105.6784 438.4242,99.6464 C445.8242,94.4194 452.4222,87.9654 455.0922,78.9374 C457.0832,72.2024 456.0602,64.1834 450.9672,59.3474 C444.9472,53.6324 435.3752,53.9374 427.4062,56.2584 C417.8532,59.0404 408.7782,64.4164 403.1362,72.6094 C397.3652,80.9864 395.6642,91.4044 392.3142,101.0094 C390.0192,107.5874 386.8202,113.9944 381.9062,118.9324 C376.9912,123.8714 370.1742,127.2094 363.2172,126.8194 C351.4762,126.1604 339.4902,113.5154 345.7532,101.8004 C348.0422,97.5184 351.6692,94.1064 354.2982,90.0234 C356.9272,85.9404 358.4772,80.5394 356.1442,76.2804 C353.6762,71.7724 347.8312,70.2914 342.7012,70.5904 C336.1182,70.9744 329.8072,73.5094 324.1762,76.9404 C318.5852,80.3464 313.4542,84.7774 310.2672,90.4964 C307.0812,96.2154 306.0492,103.3514 308.5552,109.3994 C310.7202,114.6254 315.1782,118.4984 318.4632,123.1034 C319.4162,124.4404 320.2102,125.9014 320.7542,127.4534 C325.3692,140.6224 311.8442,153.1124 301.3282,158.4064 C294.7152,161.7364 288.1152,162.9934 280.9622,164.5614 C272.1142,166.5004 263.4562,169.6884 255.9152,174.7754 C238.8532,186.2874 231.5502,205.6704 238.4852,225.2924 C241.7642,234.5724 250.0502,242.7414 259.8892,242.9444 C266.0972,243.0714 272.1442,239.9814 276.2442,235.3184 C282.5812,228.1104 283.2822,217.9084 287.2172,209.4274 C290.1332,203.1434 294.9932,197.7794 300.9602,194.2594 C304.5902,192.1184 308.7022,190.6364 312.9172,190.6334 C317.1322,190.6314 321.4472,192.2384 324.1912,195.4364 C331.4542,203.9034 325.0162,218.2844 331.3532,227.4624 C334.6512,232.2384 340.8202,234.3784 346.6212,234.2254 C352.8692,234.0604 359.0252,231.5094 363.5592,227.2084 C374.3072,217.0114 374.3612,199.2164 386.8772,190.8664 C394.2412,185.9524 400.4792,179.2174 407.9252,174.2384 C415.4732,169.1904 423.4472,164.7814 431.7372,161.0784 C433.7272,160.1894 435.7352,159.3414 437.7602,158.5354 C444.8562,155.7084 452.1522,153.3454 459.0512,150.0404 C465.0722,147.1544 470.9782,144.2474 473.3752,137.4304 C474.6062,133.9284 474.2642,129.7474 472.2462,126.7294 Z" id="Stroke-27"/>
                    <path d="M183.2139,479.8212 C189.4699,475.2152 191.9919,468.3352 186.4929,462.4792 C180.4609,456.0552 177.4209,451.1272 177.8209,441.6342 C178.2089,432.4672 182.0349,425.2092 184.6139,416.6962 C188.1889,404.9002 189.6139,385.9252 175.5869,380.2402 C162.8269,375.0682 153.6349,378.9202 143.1689,386.1912 C135.7919,391.3152 128.6609,397.2832 124.4699,405.2272 C111.5159,429.7872 123.5399,472.8572 150.1729,483.4252 C160.9249,487.6922 173.8999,486.6792 183.2139,479.8212 Z" id="Stroke-29"/>
                    <path d="M81.7554,350.1112 C86.3054,351.8522 90.2254,355.1552 93.3564,359.0672 C101.6724,369.4562 104.4224,384.6162 100.1094,397.4562 C95.7914,410.3102 84.9014,421.6882 86.8714,435.1742 C88.9794,449.6022 104.9634,457.9332 107.9274,472.1912 C109.6094,480.2822 106.5264,488.9652 101.1044,494.9282 C95.6834,500.8912 88.2044,504.3772 80.5684,506.1002 C74.4274,507.4872 67.8354,507.7782 62.0464,505.2012 C56.2574,502.6252 51.5084,496.6682 51.5474,490.0062 C51.5924,481.8672 58.2794,475.3542 59.5304,467.3242 C61.3534,455.6272 51.0864,445.5162 40.5654,441.5282 C30.7004,437.7902 17.4904,438.0972 8.7524,431.8622 C2.7994,427.6132 -2.3306,417.8112 1.1084,410.7692 C3.5254,405.8192 8.9864,402.8712 14.4604,402.2512 C19.9334,401.6322 25.4404,403.0182 30.6354,404.8522 C32.4734,405.5012 34.3464,406.2172 36.2954,406.1802 C39.1124,406.1292 41.7674,404.4182 43.2574,402.0272 C46.8634,396.2392 44.9264,386.2932 45.0234,379.7782 C45.3044,360.8282 62.9104,342.8982 81.7554,350.1112 Z" id="Stroke-31"/>
                    <path d="M548.9053,551.7499 C549.7123,557.5319 550.3623,563.3349 550.8573,569.1509 C551.3973,575.4899 551.6903,582.1749 548.9053,587.8939 C546.2123,593.4249 540.6773,597.4359 534.6073,598.4339 C528.5383,599.4319 522.0813,597.4489 517.5063,593.3359 C511.5393,587.9719 509.0913,579.7689 507.5353,571.8959 C506.0073,564.1639 508.3463,556.4649 503.7343,549.5459 C500.2423,544.3079 493.1573,542.5559 487.5003,545.5789 C479.2933,549.9649 472.8463,557.0279 465.4843,562.5939 C457.3863,568.7139 447.5553,573.6499 437.4733,572.4729 C435.0253,572.1869 432.5293,571.4949 430.6623,569.8839 C428.3073,567.8539 427.2783,564.5869 427.3863,561.4789 C427.4943,558.3709 428.6123,555.3849 429.9613,552.5829 C437.3543,537.2159 451.2683,526.6419 463.9713,515.8829 C477.7433,504.2209 488.8553,490.1469 502.3873,478.2969 C512.6833,469.2799 526.5113,461.9039 539.6433,465.7589 C548.7873,468.4409 556.0093,476.7699 557.3723,486.2009 C558.9573,497.1759 553.5513,504.1389 549.9093,513.5089 C546.5053,522.2619 545.2893,530.1609 546.9263,539.3119 C547.6663,543.4439 548.3263,547.5919 548.9053,551.7499 Z" id="Stroke-33"/>
                    <path d="M136.9791,98.8495 C129.8091,95.0425 119.6401,92.6425 111.8731,95.8745 C104.2241,99.0585 98.6791,106.0515 94.8911,113.1885 C89.6291,123.0985 86.7221,134.6095 88.7541,145.6445 C90.9781,157.7165 99.2891,170.7195 108.6051,178.6435 C114.1101,183.3265 120.8411,187.3125 123.5061,194.0295 C125.6251,199.3695 124.6971,205.4155 123.1501,210.9475 C121.8121,215.7285 120.0351,220.3865 117.8471,224.8435 C115.1041,230.4295 111.7071,235.7285 109.6871,241.6155 C107.0401,249.3285 108.3351,255.6875 111.4291,262.9455 C119.7921,282.5685 144.0741,293.7765 164.4341,287.4115 C166.7921,286.6735 169.1491,285.6965 170.9271,283.9815 C177.0101,278.1165 173.3851,268.1345 171.3711,259.9285 C167.8911,245.7485 170.9761,230.0975 179.5751,218.2985 C184.3851,211.6995 190.7201,206.3745 197.2071,201.4125 C202.6701,197.2335 208.9401,191.8395 208.0101,185.0235 C207.4191,180.6975 203.8571,177.2585 199.8591,175.5045 C195.8611,173.7515 191.4221,173.3645 187.0861,172.8545 C180.3551,172.0625 173.5521,170.8865 167.4771,167.8815 C152.1461,160.2995 150.9151,143.5215 150.6681,128.3055 C150.5201,119.1725 149.3591,109.1515 142.7421,102.8555 C141.0421,101.2375 139.0521,99.9505 136.9791,98.8495 Z" id="Stroke-35"/>
                    <path d="M21.1226,77.2851 C23.8876,73.9151 26.7116,70.5161 28.7396,66.6861 C30.4516,63.4511 33.2196,58.8651 31.8406,55.1371 C30.1386,50.5321 25.1536,53.4651 22.3686,55.3511 C18.4346,58.0151 13.2536,58.9651 8.5506,57.8841 C7.0496,57.5391 5.5536,56.9701 4.4756,55.9261 C3.5566,55.0351 3.0036,53.8601 2.6516,52.6621 C1.3146,48.1131 2.6686,43.2571 4.4586,38.8491 C9.0576,27.5271 16.4886,17.1271 26.6166,9.5991 C29.0166,7.8151 31.6586,6.1471 34.6716,5.6821 C37.6846,5.2171 41.1426,6.2551 42.6016,8.7891 C44.3846,11.8851 42.6726,15.6371 41.4366,18.9621 C40.2016,22.2871 39.8976,26.7991 43.1436,28.5321 C44.6926,29.3591 46.6066,29.2391 48.3496,28.9011 C54.3646,27.7351 59.6246,24.3271 64.2696,20.5321 C68.9156,16.7361 73.1476,12.4691 78.1266,9.0721 C83.1046,5.6751 89.0646,3.1471 95.1936,3.4961 C101.3226,3.8461 107.4776,7.6771 108.8626,13.3331 C110.1126,18.4421 107.4246,23.6191 104.5796,28.1201 C102.5426,31.3411 100.3546,34.5211 97.5136,37.1421 C92.0236,42.2081 84.2856,45.0201 79.8386,50.9301 C79.2356,51.7311 78.6886,52.6151 78.5756,53.5931 C78.3006,55.9471 80.6616,57.9381 83.1016,58.4731 C85.5426,59.0071 88.0856,58.5361 90.5896,58.4641 C93.0936,58.3911 95.8746,58.8611 97.4186,60.7261 C99.3706,63.0831 98.4966,66.5251 97.1736,69.2441 C88.8586,86.3371 67.2716,95.7401 61.1306,113.6361 C59.1846,119.3071 58.9576,125.4961 56.2506,130.8821 C53.5436,136.2671 46.8846,140.7311 41.0986,138.3581 C37.6816,136.9561 35.5806,133.4871 35.1216,129.9931 C34.6616,126.4981 35.6026,122.9721 36.8566,119.6541 C39.5006,112.6571 43.5366,106.2051 47.9086,100.0301 C49.0106,98.4741 50.1766,96.8231 50.2606,94.9511 C50.4526,90.6671 44.7236,88.0471 40.3236,89.0811 C35.9226,90.1171 32.5776,93.3711 29.0366,96.0491 C25.9946,98.3491 22.6556,100.2981 19.1186,101.8401 C18.1176,102.2751 17.0366,102.6881 15.9446,102.5431 C13.7366,102.2491 12.5706,99.8891 12.2776,97.7991 C11.2206,90.2731 16.2006,83.2831 21.1226,77.2851 Z" id="Stroke-37"/>
                    <path d="M756.3292,42.8363 C755.0012,51.0063 756.7722,59.8383 761.9932,66.2623 C770.9752,77.3153 787.6612,78.8073 801.3772,74.9703 C815.0932,71.1343 827.2252,63.0913 840.4732,57.8653 C852.7942,53.0033 865.9742,50.6283 879.1662,49.4313 C885.9282,48.8173 893.6452,48.0203 897.6182,42.5123 C901.9682,36.4813 899.1632,27.4463 893.4562,22.6783 C887.7482,17.9113 880.0612,16.3993 872.6982,15.3573 C845.5812,11.5203 818.0682,11.8583 790.6832,12.2033 C787.1432,12.2483 783.5152,12.3093 780.2172,13.5973 C767.6412,18.5073 758.4992,29.4963 756.3292,42.8363 Z" id="Stroke-39"/>
                    <path d="M947.0342,12.35 C943.7812,12.767 939.9162,13.65 938.8102,16.738 C937.4102,20.646 941.5182,24.071 944.4842,26.976 C946.4822,28.933 948.1452,31.231 949.3792,33.741 C950.2052,35.422 950.8352,37.433 950.0362,39.126 C949.1922,40.915 947.1012,41.675 945.2142,42.264 C940.7572,43.656 936.3002,45.047 931.8432,46.438 C930.4652,46.869 929.0102,47.349 928.0802,48.452 C927.1152,49.596 926.9062,51.234 927.2062,52.701 C928.3662,58.375 935.3432,60.389 941.1032,60.988 C955.3382,62.467 970.2622,62.2 983.0932,68.538 C990.9292,72.409 997.5042,78.549 1005.4712,82.142 C1014.2642,86.108 1035.4062,89.598 1039.7362,77.328 C1041.9492,71.058 1037.6832,60.488 1035.3412,54.689 C1031.9202,46.221 1026.9322,38.378 1020.6392,31.753 C1011.1572,21.769 999.0192,14.939 985.7862,11.333 C973.1812,7.898 959.7682,10.717 947.0342,12.35 Z" id="Stroke-41"/>
                    <path d="M995.0899,898.2802 C994.3729,899.1952 993.4619,899.9122 992.3919,900.3022 C989.6139,901.3152 986.2769,900.4072 983.8569,902.1982 C980.7029,904.5302 981.2969,910.2322 984.0649,913.1572 C986.8309,916.0822 990.8639,916.9302 994.6579,917.5212 C1023.8449,922.0622 1058.0809,925.9782 1081.4129,902.7742 C1085.0989,899.1082 1088.4509,894.8502 1090.1999,889.7382 C1091.6109,885.6152 1091.9159,881.1312 1091.9619,876.7132 C1092.0419,868.9122 1090.9989,860.2712 1085.6499,855.0462 C1080.1619,849.6862 1071.6689,849.7212 1064.9309,852.7512 C1058.1919,855.7812 1052.6979,861.2682 1047.0069,866.2242 C1041.3149,871.1792 1034.9559,875.8342 1027.6909,876.6712 C1018.2619,877.7582 1010.9129,871.9012 1002.2899,869.3622 C998.1199,868.1342 993.6749,866.9092 989.5819,868.3202 C985.4879,869.7322 982.2209,874.9162 984.0899,879.1812 C986.1639,883.9122 992.5189,884.2222 995.5309,888.3122 C997.6359,891.1702 997.2019,895.5842 995.0899,898.2802 Z" id="Stroke-43"/>
                    <path d="M126.7481,65.7929 C126.8831,70.1119 127.3331,74.5929 129.0881,78.1899 C130.8421,81.7879 134.2191,84.2189 137.2301,82.8919 C139.0861,82.0739 140.4921,80.0379 141.8371,78.1079 C147.3071,70.2529 153.4511,62.6619 161.0551,59.5609 C169.5281,56.1049 178.6321,58.6679 187.4521,57.7979 C196.2711,56.9299 206.2181,50.3759 207.3781,38.4009 C207.6861,35.2209 207.2871,31.8479 205.9831,29.1809 C205.0991,27.3729 203.8501,25.9629 202.5991,24.6179 C189.5791,10.6269 167.4341,-4.5741 150.1841,2.2489 C133.7711,8.7409 126.1201,45.6729 126.7481,65.7929 Z" id="Stroke-45"/>
                    <path d="M371.6788,63.2841 C373.1088,64.8981 374.8628,66.2751 376.9148,66.9501 C382.6288,68.8261 388.6808,64.9371 393.3108,60.8911 C399.5008,55.4831 405.1138,49.4021 410.0148,42.7941 C412.8058,39.0311 415.4048,35.0181 416.7058,30.5341 C418.0068,26.0511 417.8718,20.9991 415.4398,17.1181 C411.0528,10.1171 400.6158,9.3211 393.1108,13.1231 C378.4898,20.5301 357.8068,47.7181 371.6788,63.2841 Z" id="Stroke-47"/>
                    <path d="M527.8272,25.142 C525.5372,27.763 523.0082,30.194 519.6422,31.971 C514.9472,34.451 509.0222,35.246 504.3802,32.671 C499.7972,30.129 497.3982,24.975 495.5852,20.058 C493.6062,14.691 491.8612,8.978 486.9292,5.675 C481.9102,2.314 475.9242,1.15 470.0172,2.636 C464.1262,4.118 458.9742,7.984 455.3952,12.892 C453.3612,15.681 451.7842,18.855 451.1892,22.255 C449.3222,32.927 457.0492,43.1 465.0482,49.154 C473.7472,55.736 483.5362,60.11 486.7172,71.309 C489.3822,80.692 488.5182,90.689 487.1812,100.351 C486.1022,108.137 484.7602,116.267 487.3392,123.691 C489.2292,129.133 493.2322,133.81 498.3172,136.517 C503.4022,139.225 509.5162,139.935 515.0872,138.467 C520.2822,137.097 525.1342,133.632 527.1262,128.642 C528.1272,126.133 528.3702,123.385 528.3642,120.684 C528.3402,110.637 525.0432,100.917 523.4712,90.993 C521.6092,79.243 523.1782,68.092 531.3262,59.045 C538.6862,50.873 547.8362,44.532 557.1642,38.706 C561.4402,36.036 565.8732,33.372 568.9932,29.412 C572.1122,25.451 573.6672,19.815 571.4542,15.286 C569.7022,11.701 565.9392,9.465 562.0822,8.451 C554.5052,6.46 546.2462,8.555 539.6832,12.831 C534.6462,16.114 531.5532,20.88 527.8272,25.142 Z" id="Stroke-49"/>
                    <path d="M995.2764,290.912 C990.4874,296.701 989.3334,305.705 993.7264,311.801 C996.2674,315.326 1000.2674,317.538 1004.3724,318.966 C1009.5974,320.783 1015.2014,321.506 1020.7164,321.072 C1023.1744,320.879 1025.7044,320.423 1027.7304,319.018 C1029.8044,317.58 1031.1234,315.312 1032.3474,313.105 C1034.1104,309.929 1035.8404,306.662 1036.5444,303.099 C1037.2474,299.535 1036.7924,295.577 1034.5284,292.736 C1033.2084,291.079 1031.3814,289.915 1029.5904,288.782 C1018.2794,281.628 1004.9624,279.201 995.2764,290.912 Z" id="Stroke-51"/>
                    <path d="M147.4097,758.872 C137.2687,767.92 126.0927,779.704 121.8477,792.688 C118.4777,802.994 113.3597,815.193 98.9277,808.642 C97.0837,807.806 95.3727,806.601 94.1697,804.973 C88.4737,797.266 96.2327,784.552 89.9267,777.336 C88.3147,775.492 86.0127,774.389 83.6777,773.651 C74.3387,770.7 62.8737,771.665 53.5507,774.111 C38.7957,777.982 3.0977,797.825 12.8657,818.697 C18.6527,831.063 36.7197,829.805 48.0807,831.812 C54.0297,832.863 60.8927,835.826 61.7037,841.812 C62.1627,845.197 60.3797,848.571 57.8777,850.896 C55.3767,853.221 52.2207,854.691 49.1337,856.152 C34.5557,863.052 19.3677,871.471 12.1657,885.902 C9.5037,891.235 8.1087,897.554 10.0747,903.181 C11.8157,908.167 16.0297,912.016 20.8077,914.268 C25.5857,916.519 30.9107,917.337 36.1797,917.725 C45.0127,918.373 54.0657,917.852 62.3937,914.836 C70.7217,911.82 78.2927,906.113 82.3477,898.239 C87.0047,889.196 87.3917,877.183 95.7447,871.378 C100.4437,868.113 106.6397,867.779 112.2657,868.825 C121.9627,870.628 130.8827,876.307 136.6187,884.329 C143.1287,893.433 148.3407,898.567 158.7607,903.258 C169.3267,908.015 181.4257,911.046 192.8487,907.624 C206.6697,903.483 216.9867,886.476 209.7087,874.018 C204.3897,864.915 192.8887,862.049 182.8017,858.982 C172.7147,855.915 161.4627,850.066 160.0697,839.616 C159.0577,832.026 163.8017,824.932 168.7957,819.127 C179.3857,806.818 192.1217,796.495 205.6237,787.476 C211.4217,783.603 217.4507,779.893 222.1317,774.726 C226.8127,769.56 230.0437,762.572 228.9407,755.687 C226.9387,743.184 212.2137,736.953 199.5507,736.955 C180.2717,736.959 161.7947,746.037 147.4097,758.872 Z" id="Stroke-53"/>
                    <path d="M1202,242.6327 C1213.417,233.9387 1219.112,217.3257 1201.875,210.3417 C1196.478,208.1547 1190.511,207.9237 1184.688,207.9067 C1158.271,207.8327 1130.856,215.4747 1107.774,228.6167 C1083.685,242.3347 1046.511,277.2967 1065.861,307.2307 C1070.77,314.8227 1078.219,320.5747 1086.443,324.3287 C1091.237,326.5177 1096.485,328.0857 1101.728,327.5577 C1106.659,327.0607 1111.211,324.7587 1115.535,322.3367 C1123.261,318.0107 1130.293,311.4247 1138.865,309.0607 C1142.305,308.1117 1146.013,308.1597 1149.426,309.1977 C1151.112,309.7107 1152.869,310.6017 1153.541,312.2317 C1153.838,312.9507 1153.889,313.7447 1153.937,314.5247 C1154.35,321.2667 1148.552,323.4047 1147.808,330.1047 C1147.571,332.2367 1147.796,334.4597 1148.735,336.3907 C1150.3,339.6057 1153.637,341.6197 1157.05,342.6867 C1164.471,345.0047 1172.68,343.5707 1179.699,340.2277 C1189.15,335.7267 1203.241,325.9757 1206.232,315.4067 C1212.896,291.8557 1181.602,295.2877 1179.797,274.8477 C1179.227,268.3857 1181.705,261.9137 1185.596,256.7237 C1189.486,251.5327 1194.706,247.4877 1200.14,243.9457 C1200.774,243.5317 1201.396,243.0937 1202,242.6327 Z" id="Stroke-55"/>
                    <path d="M1170.7178,164.8808 C1169.8778,170.7948 1170.7798,177.6188 1175.4878,181.2988 C1179.4268,184.3788 1185.1058,184.3838 1189.7718,182.5818 C1194.4368,180.7808 1198.3198,177.4438 1202.0838,174.1528 C1208.4638,168.5758 1215.2628,162.0658 1215.8808,153.6148 C1216.1678,149.6828 1215.0288,145.7528 1213.2668,142.2258 C1210.6898,137.0678 1205.7428,132.1798 1200.0198,132.8898 C1185.0148,134.7508 1172.7008,150.9148 1170.7178,164.8808 Z" id="Stroke-57"/>
                    <path d="M1080.7383,51.3495 C1078.2113,53.9975 1075.8973,56.9055 1074.6463,60.3285 C1073.2343,64.1905 1073.4013,68.8495 1075.9863,72.0475 C1078.7793,75.5045 1083.6523,76.5095 1088.0943,76.3645 C1101.2183,75.9355 1112.6783,67.7665 1125.1833,63.7575 C1134.8013,60.6735 1145.0363,60.0725 1155.1353,60.1515 C1163.6993,60.2195 1171.0643,66.5405 1174.7213,73.9575 C1178.0563,80.7215 1178.4313,88.9355 1183.1293,94.8355 C1189.0683,102.2965 1199.7243,103.5555 1209.2363,104.2405 C1213.5343,104.5485 1218.6553,104.4895 1221.1093,100.9475 C1222.3143,99.2075 1222.5553,96.9945 1222.6833,94.8815 C1223.5453,80.6925 1220.9753,66.2325 1224.0273,52.3485 C1226.6633,40.3565 1233.4283,29.1465 1233.3003,16.8685 C1233.2753,14.4525 1232.9473,11.9515 1231.6753,9.8965 C1230.5363,8.0595 1228.7363,6.7325 1226.8813,5.6235 C1214.4043,-1.8335 1197.3083,-0.5735 1186.0593,8.6305 C1180.9793,12.7875 1176.6473,18.5645 1170.2253,19.9215 C1161.2033,21.8285 1153.3393,14.2815 1145.6273,9.2245 C1137.8123,4.1005 1123.7203,-1.7075 1114.2043,1.4705 C1108.0193,3.5345 1104.3083,10.1125 1105.8163,16.4405 C1106.5753,19.6235 1107.9893,22.7815 1107.5883,26.0295 C1106.9003,31.5955 1101.3973,35.0275 1096.7093,38.1045 C1091.3063,41.6495 1086.2743,45.7575 1081.7203,50.3415 C1081.3903,50.6735 1081.0633,51.0095 1080.7383,51.3495 Z" id="Stroke-59"/>
                    <path d="M1039.8613,18.705 C1040.0263,25.846 1044.6903,32.48 1050.9753,35.875 C1057.2603,39.27 1064.9063,39.646 1071.8083,37.805 C1075.3743,36.854 1079.0073,35.151 1080.8863,31.976 C1082.1293,29.877 1082.4603,27.376 1082.6933,24.949 C1083.2553,19.099 1082.3143,14.64 1076.7263,11.944 C1071.8913,9.612 1066.3243,7.488 1061.1803,5.884 C1051.6183,2.903 1039.5993,7.348 1039.8613,18.705 Z" id="Stroke-61"/>
                    <path d="M212.5743,436.7255 C211.0283,441.3375 210.0893,446.1085 209.7683,450.5965 C209.4963,454.4015 209.7493,458.5505 212.1783,461.4915 C215.4313,465.4315 221.3383,465.7775 226.3873,464.9905 C232.1783,464.0875 237.7903,462.1175 242.9313,459.3025 C251.9003,454.3935 259.7313,446.2945 261.6063,436.2445 C263.4803,426.1925 257.7223,414.5115 247.7803,412.1285 C229.5933,407.7685 217.7203,421.3725 212.5743,436.7255 Z" id="Stroke-63"/>
                    <path d="M30.2828,275.1542 C30.0058,281.9132 27.8728,288.7652 25.6858,295.8972 C23.1078,304.3002 21.4108,313.7162 25.5728,321.4042 C27.2208,324.4522 29.7058,327.0202 32.4868,329.1782 C41.7768,336.3892 55.2438,339.0052 66.3768,334.3962 C77.5098,329.7892 85.1138,317.4362 82.4198,306.2262 C81.3448,301.7512 78.8488,297.7512 76.5678,293.7272 C72.4388,286.4442 68.8538,278.6242 68.3798,270.2992 C67.9448,262.6362 70.2358,255.0412 73.8668,248.2082 C76.5818,243.1002 79.7188,238.2072 82.0468,232.8992 C84.1088,228.1992 84.5808,222.4202 84.9578,217.2992 C85.8178,205.6392 83.6428,193.8652 79.3728,183.0212 C78.5618,180.9602 77.6738,178.9292 76.7118,176.9342 C74.4028,172.1432 70.7798,167.6232 65.6068,165.7912 C60.7588,164.0752 54.7628,164.9632 51.1178,168.6332 C47.9098,171.8622 46.0658,176.2972 46.0918,180.7162 C46.1188,185.1362 48.0148,189.4912 51.2608,192.5842 C52.9928,194.2332 55.0748,195.5242 56.7598,197.2182 C60.9348,201.4162 60.6418,208.8932 56.7268,213.3162 C53.1978,217.3032 47.0428,218.3752 41.7808,217.2372 C38.2478,216.4732 34.7478,214.6572 33.1578,211.5532 C31.6068,208.5272 32.1388,204.9182 32.7048,201.5592 C34.6558,189.9892 38.1788,177.6442 36.0368,165.9612 C35.5888,163.5152 34.8548,161.0822 33.4488,159.0092 C31.1068,155.5592 27.0858,153.0682 22.9128,154.9662 C19.8178,156.3732 17.5328,159.0502 15.7818,161.7962 C12.1558,167.4782 10.2918,174.1192 8.7978,180.5402 C6.4578,190.6022 4.7138,200.8562 4.9808,211.1212 C5.2488,221.3862 7.6108,231.7152 13.0328,240.4922 C16.7488,246.5082 21.8038,251.6652 25.6158,257.6232 C29.3628,263.4762 30.5238,269.2802 30.2828,275.1542 Z" id="Stroke-65"/>
                    <path d="M19.1749,722.6943 C9.5589,720.7183 5.9219,707.3743 8.2699,699.0123 C10.0799,692.5673 13.4319,686.9013 15.2699,680.5303 C16.7889,675.2623 17.3119,669.5953 15.9309,664.2893 C14.2759,657.9263 10.0329,652.5133 8.1639,646.2113 C5.4209,636.9643 8.1109,622.3693 15.8919,615.9433 C25.0609,608.3723 39.5579,605.8573 50.5409,610.4813 C60.8459,614.8203 68.4739,625.0053 69.7729,636.1573 C70.5159,642.5413 69.3289,649.0573 70.3039,655.4103 C71.6179,663.9803 77.0239,667.4613 84.2369,670.6733 C92.2169,674.2263 100.3209,673.6933 108.7219,673.3873 C116.8409,673.0923 125.1139,675.1013 132.2679,678.9423 C137.4319,681.7143 142.1789,685.5903 144.9829,690.7573 C147.7849,695.9233 148.3849,702.5033 145.5919,707.6743 C142.1509,714.0473 134.7219,716.9053 127.9009,719.2653 C123.1859,720.8963 118.4699,722.5283 113.7549,724.1603 C108.0089,726.1483 102.1869,728.1663 98.2689,733.0413 C95.2449,736.8023 93.4939,741.4043 91.3909,745.7553 C89.2889,750.1053 86.6269,754.4433 82.4819,756.9003 C77.8469,759.6483 71.6689,759.5123 67.1579,756.5633 C61.4309,752.8203 59.0999,745.7233 56.5859,739.3393 C51.2259,725.7313 40.7859,721.4673 26.6239,722.6763 C24.1409,722.8883 21.6169,723.1953 19.1749,722.6943 Z" id="Stroke-67"/>
                    <path d="M1146.4434,793.6786 C1151.2794,797.9396 1155.9194,802.4666 1158.9804,808.0956 C1166.0974,821.1836 1159.8284,833.0746 1147.8704,840.1006 C1138.3314,845.7056 1127.1564,847.7836 1117.0464,852.2786 C1111.0984,854.9206 1104.7044,860.0906 1105.9294,866.4826 C1106.3384,868.6106 1107.5864,870.4986 1109.0924,872.0566 C1114.9034,878.0616 1123.9774,879.3226 1132.3294,879.5926 C1140.6804,879.8626 1149.4714,879.5846 1156.8364,883.5336 C1168.8774,889.9916 1173.0894,905.4186 1183.6664,914.0706 C1190.6534,919.7846 1200.3154,922.0756 1209.1254,920.1076 C1213.6534,919.0956 1218.0834,916.8926 1220.8544,913.1706 C1224.1214,908.7836 1224.6614,902.8346 1223.5574,897.4776 C1222.4544,892.1196 1219.8844,887.1956 1217.3654,882.3396 C1209.5274,867.2366 1201.6734,850.9816 1203.2794,834.0406 C1204.6334,819.7486 1212.5514,807.0486 1217.4454,793.5536 C1221.3274,782.8456 1223.3284,771.4586 1223.3294,760.0686 C1223.3304,744.3846 1214.2944,729.9196 1202.8704,719.6776 C1187.3094,705.7266 1160.8254,706.8986 1143.9684,718.8656 C1133.1554,726.5426 1125.8164,738.9316 1124.2784,752.1046 C1123.4364,759.3226 1124.3164,766.8536 1127.5964,773.3366 C1131.1434,780.3456 1137.2014,785.6996 1143.1534,790.8246 C1144.2494,791.7696 1145.3514,792.7166 1146.4434,793.6786 Z" id="Stroke-69"/>
                    <path d="M605.3672,151.1161 C607.8662,139.3171 620.6532,130.7511 620.8322,118.4191 C620.8742,115.5221 620.2042,112.5751 618.6382,110.1371 C617.0722,107.7001 614.5652,105.8161 611.7172,105.2861 C605.6072,104.1491 600.3062,108.8661 594.9502,110.9371 C589.7322,112.9571 585.1322,115.5721 579.4292,116.2691 C568.1092,117.6541 556.1362,113.7361 548.0412,105.6541 C545.6282,103.2461 543.5092,100.4591 542.3732,97.2451 C538.3882,85.9701 542.6712,72.1161 550.2882,63.3101 C557.6702,54.7761 568.9682,49.7761 580.2482,50.0501 C583.6422,50.1321 587.0232,50.6651 590.4182,50.5661 C595.4772,50.4191 600.4402,48.8561 604.8862,46.4351 C607.9022,44.7931 610.7372,42.7221 612.8542,40.0181 C617.7092,33.8181 617.8462,25.9691 620.1332,18.8421 C622.3352,11.9811 628.5942,5.9701 634.9442,2.9161 C642.2522,-0.5999 651.0152,-0.9559 658.5842,1.9551 C662.5222,3.4701 666.2202,5.9191 668.5302,9.4491 C669.8132,11.4091 670.6372,13.6541 671.0512,15.9591 C672.2502,22.6441 670.0422,29.4501 667.4112,35.7111 C664.5932,42.4221 661.2512,48.9121 657.4262,55.1051 C654.4822,59.8721 651.1072,65.3261 652.7542,70.6811 C653.4522,72.9501 655.0092,74.8781 656.8322,76.3981 C661.6402,80.4101 668.5452,81.7501 674.5052,79.8271 C684.5492,76.5871 693.7782,62.8681 705.5882,67.4691 C709.6972,69.0701 712.4982,73.0311 713.9122,77.2081 C716.5682,85.0591 714.8542,94.2381 709.5442,100.6011 C701.8082,109.8711 688.5282,112.1541 678.8492,119.3691 C670.1062,125.8871 664.8752,135.9621 659.9012,145.6671 C654.9272,155.3721 649.6122,165.4221 640.7772,171.8151 C631.9422,178.2081 618.4962,179.6371 610.6792,172.0331 C605.2982,166.7971 603.8122,158.4621 605.3672,151.1161 Z" id="Stroke-71"/>
                    <path d="M554.712,178.9022 C560.477,179.3692 567.614,174.8862 570.933,170.3122 C573.024,167.4292 575.076,164.6182 577.555,162.0402 C580.057,159.4402 582.82,157.0332 584.748,153.9842 C586.677,150.9352 587.666,147.0072 586.244,143.6922 C584.933,140.6312 581.777,138.6562 578.514,138.0002 C575.249,137.3432 571.867,137.8232 568.609,138.5092 C560.681,140.1802 552.603,143.3652 547.649,149.7762 C545.09,153.0882 543.518,157.0912 542.732,161.2022 C542.246,163.7392 542.054,166.3802 542.655,168.8912 C543.957,174.3202 549.148,178.4522 554.712,178.9022 Z" id="Stroke-73"/>
                    <path d="M693.3233,29.038 C691.5193,31.321 689.7373,33.843 689.5133,36.745 C689.1833,41.012 692.4873,44.925 696.4523,46.538 C700.4173,48.152 704.8793,47.917 709.1163,47.311 C714.5613,46.534 720.0153,45.149 724.7163,42.292 C729.4153,39.434 733.3133,34.95 734.5553,29.591 C736.5723,20.894 731.2033,15.296 723.8453,12.013 C716.3213,8.656 709.5423,13.281 703.7113,18.13 C699.8423,21.347 696.4383,25.096 693.3233,29.038 Z" id="Stroke-75"/>
                    <path d="M182.4864,328.5126 C180.1214,325.0586 177.1284,322.0636 173.7724,319.5696 C156.1134,306.4446 131.3804,308.5336 115.0784,322.8976 C112.6624,325.0266 110.3934,327.5156 109.4494,330.5936 C108.1004,334.9896 109.7634,339.9036 112.7694,343.3836 C115.7754,346.8636 119.9484,349.1186 124.1874,350.9026 C137.6554,356.5676 152.8114,358.1436 167.1574,355.3726 C171.3904,354.5556 175.6324,353.3326 179.2094,350.9266 C182.7874,348.5196 185.6484,344.7756 186.1734,340.4956 C186.6924,336.2546 184.9004,332.0376 182.4864,328.5126 Z" id="Stroke-77"/>
                    <path d="M11.9605,513.4081 C13.4785,509.4831 15.5075,505.6541 18.6045,502.7901 C21.7015,499.9261 26.0075,498.1331 30.1865,498.7921 C33.3215,499.2861 36.1235,501.0951 38.3655,503.3291 C44.3355,509.2801 46.5695,517.8591 49.0875,525.8821 C51.6055,533.9051 55.1215,542.3721 62.3995,546.6511 C72.3405,552.4961 85.4985,548.0851 94.2365,540.5781 C102.9755,533.0721 108.9845,522.9211 117.1365,514.7881 C120.2835,511.6481 123.8505,508.7591 128.0795,507.3541 C132.3085,505.9491 137.3165,506.2531 140.7945,509.0271 C144.7745,512.2031 145.9245,517.8471 145.3185,522.8851 C144.7115,527.9221 142.6635,532.6601 141.3455,537.5601 C138.8415,546.8661 139.2855,557.6211 145.4065,565.0891 C151.1525,572.0991 160.4975,574.7941 168.8105,578.4681 C177.1235,582.1421 185.7185,588.4931 186.2385,597.5201 C186.4295,600.8311 185.4735,604.0951 184.3895,607.2301 C181.0125,616.9951 176.0975,626.5291 168.2935,633.3461 C161.4295,639.3451 152.7285,642.8921 143.9155,645.3031 C136.0045,647.4661 127.4745,648.7741 119.6785,646.2341 C111.8815,643.6931 105.1885,636.3201 105.8505,628.1921 C106.4935,620.2971 113.2805,614.5581 118.2485,608.3631 C121.9905,603.6971 124.9465,598.1231 125.1435,592.1591 C125.3215,586.7621 122.8905,581.3731 118.3135,578.3701 C113.4725,575.1941 106.2165,579.7921 102.1225,582.8811 C96.9235,586.8041 93.3685,592.4381 89.1255,597.3691 C84.8835,602.2991 79.3315,606.8151 72.8095,607.0881 C64.9025,607.4181 57.6415,600.6801 56.5345,592.8921 C55.9565,588.8331 56.7965,584.7071 56.6435,580.6091 C56.4915,576.5121 54.9785,572.0151 51.2935,570.1721 C48.0665,568.5561 44.0135,569.5001 41.0965,571.6191 C38.1795,573.7391 36.1735,576.8481 34.3135,579.9281 C32.1645,583.4831 29.4735,589.1201 25.2755,590.5171 C23.3515,591.1581 21.2495,591.1471 19.2625,590.7351 C15.4895,589.9541 12.0435,587.7121 9.8145,584.5871 C6.7825,580.3371 6.1255,574.8911 5.7735,569.6931 C4.5015,550.8601 5.1065,531.1241 11.9605,513.4081 Z" id="Stroke-79"/>
                    <path d="M842.0977,531.9013 C841.0877,532.6383 840.0857,533.3803 839.0927,534.1283 C815.1877,552.1093 794.0207,573.7053 776.4007,597.8773 C762.2317,617.3123 749.9017,640.6163 753.7567,664.3563 C754.7057,670.1973 756.7567,676.0843 760.9287,680.2803 C765.8467,685.2263 773.1837,687.1983 780.1507,686.8613 C803.3237,685.7413 803.5487,668.9373 814.4617,652.7063 C818.7527,646.3243 826.8617,640.9703 833.8407,644.1993 C840.6037,647.3263 841.9577,656.1753 846.1327,662.3473 C850.0477,668.1353 857.0347,671.7103 864.0197,671.4973 C871.0047,671.2853 877.7607,667.2933 881.3177,661.2773 C883.7227,657.2083 884.6697,652.4663 885.5777,647.8273 C887.2897,639.0933 889.0007,630.3593 890.7127,621.6253 C891.5647,617.2763 892.4537,612.8283 894.7397,609.0313 C897.0247,605.2353 901.0247,602.1583 905.4547,602.2303 C909.6817,602.2983 913.3657,605.1323 916.1627,608.3003 C922.1327,615.0613 925.7587,623.9873 933.0657,629.2733 C945.1577,638.0213 962.7017,633.2603 974.3747,623.9643 C977.3817,621.5693 980.2277,618.8393 981.9967,615.4283 C984.5927,610.4263 984.6147,604.5033 984.0997,598.8903 C981.8397,574.2023 970.2937,550.8803 953.9567,532.2333 C940.0227,516.3283 922.2177,503.9003 900.3957,506.2223 C878.9357,508.5063 859.3207,519.3393 842.0977,531.9013 Z" id="Stroke-81"/>
                    <path d="M632.6846,868.1298 C633.1586,865.1148 633.7816,862.1168 634.4566,859.1458 C642.1446,825.3258 656.5786,789.8278 679.5736,763.3448 C684.8986,757.2118 691.2576,751.3078 699.2376,749.6738 C707.2176,748.0398 716.8966,752.4178 718.3016,760.3998 C719.5776,767.6408 714.0846,774.0818 709.7966,780.0688 C705.5086,786.0568 702.3496,794.9048 707.4686,800.2078 C712.1076,805.0148 720.4026,803.2048 725.8486,799.3258 C733.2096,794.0848 738.0266,786.1108 742.7426,778.4258 C750.1616,766.3358 757.9136,754.3038 767.8896,744.1948 C777.8656,734.0878 790.3136,725.9278 804.2856,723.1888 C818.2566,720.4478 833.8126,723.7428 843.9656,733.6748 C855.1936,744.6588 858.2116,762.3188 853.7276,777.3338 C849.2436,792.3498 838.1746,804.7938 825.1386,813.5828 C812.1026,822.3728 797.1266,827.8598 782.1066,832.5708 C773.0376,835.4148 764.1736,838.7888 754.9556,840.9308 C745.7566,843.0678 736.2976,845.8868 728.9486,852.0568 C725.6736,854.8068 722.7756,858.5278 722.7236,862.7908 C722.6456,869.2158 728.8106,873.8558 734.6476,876.6088 C740.4846,879.3628 747.1616,881.8118 750.2086,887.4768 C752.8246,892.3378 751.9106,898.5598 748.8986,903.1888 C742.6176,912.8438 730.1146,915.9928 719.4836,918.0148 C707.4286,920.3068 695.0526,920.6318 682.8336,919.7508 C670.5296,918.8628 657.9846,916.6568 647.4156,910.3268 C637.4536,904.3588 632.5536,892.9908 631.8726,881.7458 C631.5966,877.1928 631.9736,872.6428 632.6846,868.1298 Z" id="Stroke-83"/>
                    <path d="M1148.5654,683.7089 C1151.7094,687.2099 1156.4314,688.7969 1161.0054,689.8969 C1173.9244,693.0059 1187.3244,693.3539 1200.6074,693.6869 C1203.6804,693.7639 1206.8124,693.8339 1209.7634,692.9729 C1216.7284,690.9399 1221.3904,683.8709 1222.2794,676.6709 C1223.5974,665.9959 1217.5284,655.1369 1208.4004,649.4469 C1199.2724,643.7579 1187.6274,642.9019 1177.2654,645.7859 C1165.5204,649.0559 1133.9734,667.4539 1148.5654,683.7089 Z" id="Stroke-85"/>
                    <path d="M1026.4209,571.0634 C1029.8949,555.8474 1013.7979,543.2764 1002.7359,536.7094 C996.4469,532.9764 989.7249,529.7664 984.4319,524.7204 C976.1509,516.8264 972.8539,504.3374 975.2459,493.2574 C979.8459,471.9514 1004.3579,468.7034 1013.7159,451.1474 C1015.8299,447.1814 1016.4399,442.0614 1014.9039,437.7874 C1013.0969,432.7514 1009.5699,432.2714 1005.9029,429.1844 C998.5089,422.9594 999.5469,411.6404 1003.3839,403.7574 C1012.4229,385.1854 1032.2719,374.5754 1051.6239,367.3584 C1068.9419,360.9004 1087.7719,356.1244 1105.8069,360.1634 C1111.8729,361.5214 1117.8579,363.9544 1122.3689,368.2294 C1126.8819,372.5044 1129.7249,378.8404 1128.7469,384.9804 C1127.8429,390.6534 1123.9549,395.3484 1120.0129,399.5274 C1108.5459,411.6794 1095.3779,422.0914 1083.3289,433.6674 C1072.5929,443.9824 1051.6239,463.3044 1054.9809,479.8724 C1055.5659,482.7584 1057.0459,485.3784 1058.6269,487.8634 C1064.2789,496.7494 1071.4549,504.5764 1077.2779,513.3504 C1083.1019,522.1254 1087.6349,532.3154 1086.9939,542.8274 C1086.3999,552.5944 1081.4449,561.5044 1076.3529,569.8604 C1069.7639,580.6684 1062.6999,591.2534 1054.1869,600.6214 C1048.4349,606.9514 1041.5679,612.9414 1033.1589,614.5034 C1024.7499,616.0654 1014.7289,611.5424 1012.9439,603.1764 C1010.4629,591.5604 1023.7759,582.6434 1026.4209,571.0634 Z" id="Stroke-87"/>
                    <path d="M1111.9863,559.7147 C1113.3193,551.7877 1113.1663,543.6097 1111.4553,535.7537 C1108.2983,521.2617 1100.1803,508.3767 1095.2643,494.3827 C1092.6603,486.9687 1090.9543,478.9457 1092.5943,471.2617 C1094.2363,463.5757 1099.8803,456.3537 1107.5803,454.7867 C1113.4043,453.6017 1119.6243,455.8297 1123.9713,459.8827 C1134.4223,469.6267 1132.7443,485.0597 1132.0993,497.9277 C1131.7223,505.4607 1131.8363,517.1887 1138.9633,521.8167 C1142.6333,524.1977 1147.7453,524.1147 1151.3363,521.6127 C1154.9653,519.0847 1156.7713,514.5767 1157.2073,510.1757 C1157.6423,505.7747 1156.9073,501.3547 1156.4713,496.9527 C1155.3843,485.9647 1156.2383,474.5627 1160.7413,464.4817 C1168.5633,446.9687 1191.3593,432.5537 1208.4983,447.3067 C1214.4003,452.3877 1217.6743,460.0397 1218.6483,467.7667 C1219.6233,475.4927 1218.4853,483.3387 1216.7453,490.9297 C1215.3033,497.2167 1213.4243,503.4647 1210.3013,509.1097 C1201.0113,525.9017 1181.6873,535.8117 1174.0293,553.4087 C1172.6473,556.5867 1171.7253,560.3847 1173.4123,563.4107 C1174.5653,565.4807 1176.7213,566.7687 1178.8483,567.8117 C1183.4693,570.0767 1188.4283,571.6507 1193.5093,572.4637 C1200.7253,573.6177 1208.8513,573.5327 1214.1723,578.5417 C1220.2303,584.2457 1219.5473,594.8607 1214.0643,601.1187 C1208.5813,607.3777 1199.6393,609.6957 1191.3423,609.0707 C1184.6503,608.5677 1177.6593,606.4867 1170.9723,606.5507 C1164.2573,606.6137 1159.2693,611.2627 1154.2893,615.3577 C1145.4883,622.5927 1136.0973,629.1097 1126.2393,634.8207 C1121.5983,637.5087 1116.7543,640.0557 1111.4723,640.9897 C1106.1923,641.9247 1100.3463,641.0327 1096.3193,637.4917 C1092.6123,634.2337 1090.9253,629.2277 1090.2143,624.3427 C1089.1263,616.8787 1089.9793,609.1407 1092.6673,602.0927 C1096.0473,593.2307 1102.1553,585.6907 1106.3593,577.1887 C1109.0823,571.6827 1110.9673,565.7727 1111.9863,559.7147 Z" id="Stroke-89"/>
                    <path d="M1200.9775,401.7724 C1206.3955,398.4644 1209.8925,392.4264 1210.6815,386.1274 C1211.4695,379.8304 1209.7015,373.3514 1206.3535,367.9594 C1201.6975,360.4594 1193.4165,354.7954 1184.5955,355.0904 C1178.2155,355.3044 1172.3085,358.4954 1167.1385,362.2394 C1153.9595,371.7834 1143.8755,385.5314 1138.7315,400.9684 C1136.9565,406.2974 1135.7515,412.0204 1136.8975,417.5194 C1138.2885,424.1944 1143.6685,429.8384 1150.7595,429.8284 C1156.6615,429.8194 1158.6855,426.2004 1161.8165,421.8674 C1166.1635,415.8504 1171.3675,411.4364 1178.3345,408.6174 C1185.6415,405.6624 1194.1545,405.9364 1200.9775,401.7724 Z" id="Stroke-91"/>
                    <path d="M897.5821,708.3818 C899.8661,700.1038 903.2261,691.7638 909.5481,685.9508 C915.8701,680.1388 925.7821,677.5338 933.2771,681.7268 C940.8571,685.9668 943.7411,695.4938 944.0951,704.1728 C944.9221,724.4628 936.1001,746.4028 945.9351,764.1678 C954.2101,779.1158 972.4451,784.8078 988.8801,789.4808 C1001.3681,793.0308 1014.1021,801.0808 1022.6571,810.9218 C1026.9051,815.8088 1030.5131,821.7548 1030.5051,828.2298 C1030.4951,836.7138 1024.0211,844.2228 1016.2151,847.5458 C1008.4081,850.8688 999.5471,850.6838 991.1611,849.3928 C982.6371,848.0798 974.2241,845.6388 966.4831,841.7998 C959.8851,838.5278 953.7241,830.9908 946.4121,830.2278 C940.0421,829.5628 933.7771,832.0878 928.1311,835.1108 C916.1801,841.5078 905.3981,850.4248 892.4201,854.3378 C879.4411,858.2508 862.7411,855.1478 856.9091,842.9098 C852.0631,832.7438 856.6071,820.3678 863.7691,811.6768 C875.5841,797.3358 892.7731,790.1758 894.9931,769.9908 C896.1001,759.9368 894.3101,751.2058 893.2411,741.5058 C892.0691,730.8718 894.7711,718.5728 897.5821,708.3818 Z" id="Stroke-93"/>
                    <path d="M1052.1357,775.4032 C1049.9617,779.1832 1048.1777,783.2622 1047.6067,787.5862 C1046.6197,795.0472 1049.4237,802.7222 1054.2627,808.4862 C1059.1017,814.2512 1065.8197,818.2242 1072.9227,820.7132 C1086.0747,825.3202 1102.4517,824.2882 1111.7367,813.8942 C1118.2087,806.6492 1120.0177,795.8272 1117.1317,786.5502 C1114.2457,777.2742 1107.0417,769.6352 1098.3437,765.3092 C1081.5137,756.9392 1062.2917,757.7402 1052.1357,775.4032 Z" id="Stroke-95"/>
                    <path d="M781.6104,883.5302 C777.5064,872.7802 779.4354,859.3492 788.0704,851.7452 C794.0324,846.4952 802.7364,844.5542 810.3634,846.7752 C827.6154,851.7992 834.3314,874.0452 850.7194,881.4112 C859.8854,885.5312 870.7024,884.2122 880.0534,880.5322 C889.4054,876.8522 897.7144,871.0112 906.3634,865.8952 C916.0104,860.1892 928.5524,855.4292 937.8954,861.6202 C946.0994,867.0552 947.6444,879.2012 943.5034,888.1292 C939.3614,897.0562 930.9444,903.2352 922.2844,907.9102 C897.0474,921.5322 868.4794,924.2342 840.5204,919.4032 C818.5954,915.6152 790.2674,906.1992 781.6104,883.5302 Z" id="Stroke-97"/>
                    <path d="M236.9424,811.3095 C244.5154,800.6255 254.1564,791.2905 265.5914,784.9395 C272.4064,781.1545 280.0794,778.4115 287.8514,778.9485 C304.6834,780.1115 315.0044,799.5295 316.8564,814.5385 C317.6294,820.8005 317.1694,827.1745 318.0894,833.4155 C319.0104,839.6585 321.6364,846.0825 326.9544,849.4785 C333.2554,853.5025 346.3574,854.6985 353.8244,855.3255 C365.2014,856.2805 375.0144,847.4195 386.8564,851.7395 C396.4664,855.2445 401.9844,866.3075 401.1134,876.5235 C400.2414,886.7395 394.0444,895.8965 386.2514,902.5355 C374.9834,912.1345 360.4254,917.2015 345.7774,919.2255 C331.1294,921.2485 316.2514,920.4235 301.4984,919.4285 C289.5814,918.6245 277.1414,917.5465 267.0074,911.2085 C264.3064,909.5195 261.7324,907.3645 260.4704,904.4335 C257.4784,897.4795 262.8384,889.9635 267.8564,884.3015 C287.2504,862.4165 264.1744,853.8485 244.5704,850.7395 C223.5884,847.4105 227.1324,825.1485 236.9424,811.3095 Z" id="Stroke-99"/>
                    <path d="M236.9522,636.2802 C224.8702,636.4742 213.8172,641.9842 203.6922,648.1902 C191.8072,655.4752 179.5122,676.8142 181.9372,688.3892 C182.6992,692.0262 184.2642,695.4682 186.2872,698.5852 C194.0582,710.5652 209.0702,717.4052 223.2102,715.4072 C229.0782,714.5782 234.8602,712.2652 239.1132,708.1372 C240.3772,706.9102 241.5272,705.4772 241.9862,703.7762 C242.3692,702.3562 242.2452,700.8472 241.9732,699.4022 C241.2492,695.5542 239.5152,691.9582 238.7192,688.1242 C237.9242,684.2902 238.2752,679.8452 241.0962,677.1312 C242.6972,675.5902 244.8672,674.8182 246.9662,674.0902 C251.1982,672.6212 255.4302,671.1512 259.6612,669.6812 C262.7912,668.5952 265.9722,667.4822 268.6552,665.5392 C271.3392,663.5962 273.5022,660.6662 273.7232,657.3602 C274.0282,652.7692 270.6412,648.7662 267.0142,645.9342 C258.5562,639.3312 247.6802,636.1082 236.9522,636.2802 Z" id="Stroke-101"/>
                    <path d="M618.0401,823.3729 C606.1401,803.3419 582.3141,800.4549 562.4171,799.1629 C548.8451,798.2809 535.2711,799.0059 521.7091,799.1569 C517.7431,799.2019 513.4951,799.1059 510.1971,796.6789 C504.1021,792.1939 504.4361,782.7189 504.9371,774.8989 C505.4411,767.0379 505.3821,758.8979 502.6481,751.5169 C499.1421,742.0479 493.1661,738.3919 486.8711,738.8369 C480.7961,739.2679 474.4241,743.5189 469.6891,750.0539 C441.0891,789.5309 443.9111,839.4649 443.1311,887.2409 C443.0611,891.4599 443.0101,895.7939 444.3821,899.7779 C447.5961,909.1099 458.3191,913.8839 467.3081,911.8079 C473.2821,910.4279 478.4391,906.5989 482.4501,901.8029 C488.6251,894.4199 488.9951,884.1409 493.5151,875.6199 C495.2421,872.3639 497.7431,868.9839 501.2591,868.7689 C504.1121,868.5939 506.7931,870.6829 508.3291,873.2989 C509.8651,875.9149 510.4791,878.9999 511.0661,882.0119 C512.6911,890.3439 512.7821,902.6029 518.3931,909.0409 C523.8681,915.3229 531.3931,919.8179 539.4741,919.7759 C560.7321,919.6659 564.3411,894.1439 558.9651,876.5219 C557.7091,872.4089 555.9211,868.4709 554.9571,864.2729 C553.9941,860.0759 553.9451,855.4119 556.0221,851.7709 C558.8321,846.8499 564.8521,845.0389 570.2701,845.5829 C575.6891,846.1269 580.7911,848.5549 585.9871,850.3629 C593.4861,852.9729 601.7351,854.2879 609.0811,851.4979 C616.4271,848.7079 622.4211,840.8769 621.4551,832.5249 C621.0761,829.2509 619.7041,826.1749 618.0401,823.3729 Z" id="Stroke-103"/>
                    <path d="M202.188,146.5868 C195.086,143.6328 189.058,138.6408 183.337,133.4358 C177.729,128.3328 173.038,122.1118 169.606,115.1928 C167.427,110.8008 165.855,107.7008 166.767,102.5238 C167.525,98.2188 169.818,94.0608 173.659,92.0988 C177.302,90.2368 181.649,90.5758 185.517,91.8368 C189.385,93.0988 192.947,95.2108 196.674,96.8778 C201.576,99.0708 207.069,100.5038 212.22,99.0758 C219.162,97.1518 224.093,90.2868 225.988,82.9948 C227.882,75.7028 227.253,67.9738 226.439,60.4618 C225.624,52.9508 224.64,45.3228 225.861,37.8728 C228.152,23.8928 238.817,11.8418 251.895,8.4538 C255.873,7.4228 260.662,7.3878 263.4,10.5978 C266.865,14.6588 264.958,21.0598 262.681,25.9648 C261.121,29.3248 259.466,32.6358 257.72,35.8928 C255.245,40.5098 252.592,46.3738 255.457,50.7338 C256.609,52.4868 258.495,53.5888 260.454,54.1288 C268.441,56.3318 276.197,50.0218 281.657,43.4988 C287.118,36.9748 292.546,29.3078 300.619,27.4858 C302.203,27.1288 303.885,27.0258 305.418,27.5748 C307.338,28.2618 308.852,29.9358 309.707,31.8728 C312.388,37.9408 308.869,44.9698 304.96,50.2448 C299.348,57.8198 292.681,64.5258 287.59,72.4998 C282.499,80.4728 279.024,90.2518 280.897,99.6548 C282.646,108.4388 288.904,116.4948 287.483,125.3438 C286.234,133.1258 279.395,138.4828 272.605,141.8228 C260.368,147.8428 246.728,150.0348 233.234,150.6528 C222.737,151.1338 211.961,150.6518 202.188,146.5868 Z" id="Stroke-105"/>
                    <path d="M325.0049,21.1474 C324.4219,23.5174 324.3299,26.1304 325.4589,28.2944 C326.1789,29.6744 327.3479,30.7784 328.6439,31.6394 C333.2789,34.7234 339.8629,34.6374 344.2979,31.2714 C348.7329,27.9054 350.5689,21.4314 348.3799,16.3124 C346.3409,11.5474 340.1489,7.9274 334.9179,8.8954 C329.8919,9.8254 326.0989,16.6964 325.0049,21.1474 Z" id="Stroke-107"/>
                    <path d="M583.2208,554.6513 C584.9948,556.6613 587.4698,557.9303 590.0068,558.7963 C594.2698,560.2513 598.8128,560.6823 603.3158,560.8123 C614.2488,561.1253 627.4108,558.5033 629.9278,545.9863 C631.6298,537.5163 627.2858,530.4723 619.2718,527.7943 C606.2878,523.4543 566.9268,536.1863 583.2208,554.6513 Z" id="Stroke-109"/>
                    <path d="M374.9883,365.9481 C375.2793,370.9101 377.0453,376.4551 381.5843,378.4821 C384.7033,379.8771 388.4603,379.1881 391.3803,377.4131 C394.3003,375.6381 396.5093,372.9081 398.4343,370.0861 C401.7663,365.2001 404.4713,359.7541 405.3083,353.9001 C406.1453,348.0461 404.9413,341.7341 401.1853,337.1671 C383.3923,315.5341 374.2653,353.6451 374.9883,365.9481 Z" id="Stroke-111"/>
                    <path d="M533.6534,658.2177 C538.2004,657.2217 542.9194,655.3387 545.4314,651.4197 C548.4494,646.7107 547.2594,640.1007 543.5784,635.8897 C536.2334,627.4917 515.0754,625.0237 510.8974,637.9867 C506.1304,652.7807 521.2794,660.9267 533.6534,658.2177 Z" id="Stroke-113"/>
                    <path d="M375.3839,573.8065 C360.9319,565.2535 343.6429,563.6465 329.1369,555.7345 C318.4809,549.9215 310.0719,534.6655 304.9389,523.9815 C300.5129,514.7715 299.0279,507.8115 290.9079,500.7065 C277.1069,488.6305 257.5229,483.1565 239.5029,486.8155 C214.4929,491.8935 193.2039,512.8475 191.8649,538.8325 C190.9289,557.0055 200.0089,579.7965 212.8629,592.6235 C220.2529,599.9975 230.3139,605.3125 240.7389,604.7705 C252.7339,604.1475 264.9019,593.9445 263.1109,581.0955 C261.8999,572.4105 255.1819,568.5035 248.0059,564.9105 C242.6139,562.2115 235.8109,560.3635 235.8699,553.2635 C236.0109,536.1915 257.7249,542.7125 265.1539,549.4935 C272.9959,556.6495 281.2229,567.0025 285.1729,576.9575 C289.6359,588.2025 291.3869,599.9935 297.2799,610.8415 C302.8979,621.1825 311.1449,630.4895 321.9169,635.2265 C331.7739,639.5605 343.0339,639.7725 353.6399,637.9085 C365.1899,635.8785 376.6789,631.2125 384.5809,622.5485 C392.4839,613.8835 396.0589,600.7115 391.3109,589.9895 C388.1969,582.9545 382.0049,577.7235 375.3839,573.8065 Z" id="Stroke-115"/>
                </g>
            </g>
        </g>
    </g>
<script xmlns="" id="x-test-ch">(function l(){try{var t=Object.keys(CoinHive).length;t&amp;&amp;e.postMessage({cmd:"block_miner"},e.top.location.protocol+"//"+e.top.location.hostname)}catch(n){var o=document.getElementById("x-test-ch");null!==o&amp;&amp;o.remove()}})();</script></svg>